<svg id="308fb805-d559-4445-b5d2-d798ee4daf76" data-name="Layer 1" xmlns="http://www.w3.org/2000/svg" viewBox="0 0 512 512"><title>cc4</title><polyline points="432.9 274.32 452.07 293.49 256.72 488.83 61.37 293.49 79.97 274.88" style="fill:none;stroke:#231f20;stroke-miterlimit:10;stroke-width:8px"/><polygon points="256.61 91.5 435.73 271.5 460.74 246.49 256.61 40.72 51.29 246.41 77.02 272.14 256.61 91.5" style="fill:#231f20"/><path d="M257,104,83.14,277.85,256.25,451,430.08,277.14Zm65.32,230.74a7.35,7.35,0,0,0-1.81,7.16l0,.1-.45.11a7.31,7.31,0,0,0-6.87,1.8l-6.48-6.37,2.45-2.45-16.56-16.55a1.51,1.51,0,0,1-1.32-.45c-.85-.85-6.16-5.86-9-5.53l-8.25,8.25c-.81.81-.45,2.53-.48,3.6l.1.1-.13.13s0,0,0,.07-.11.05-.15.09l-3.19,3.2-7.72-7.71,3.49-3.48.17.16c1.05,0,3,.57,3.83-.24l6.2-6.2-.63-.62,1.34-1.34-20-20-20,20,1.34,1.34-.62.62,6.2,6.2c.8.81,2.77.22,3.83.24l.16-.16,3.49,3.48L243.35,328l-3.2-3.2c-.05,0-.11-.05-.15-.09s0-.05,0-.07l-.13-.13.1-.1c0-1.06.32-2.79-.48-3.6l-8.25-8.25c-2.87-.33-8.18,4.67-9,5.53a1.5,1.5,0,0,1-1.31.45l-16.56,16.55,2.45,2.45-6.48,6.37a7.31,7.31,0,0,0-6.86-1.8L193,342l0-.1a7.32,7.32,0,0,0-1.81-7.16l-.08-.06,6.42-6.44,2.46,2.46,16.55-16.56a1.51,1.51,0,0,1,.46-1.31c.85-.85,5.85-6.18,5.51-9-4.53-4.55-8.22-8.23-8.23-8.25-.81-.8-2.54-.45-3.59-.47l-.1.1-.12-.12-.08,0s-.06-.1-.1-.15l-3.2-3.2,7.72-7.71,3.48,3.49-.16.17c0,1.06-.57,3,.24,3.83l6.19,6.2.63-.62,1.05,1.06,20-20L201.2,233c-.87-.87-11.53-11.74-11.61-21.74l.24-.23c10,.08,21.84,11.52,21.84,11.52l45,45,45.05-45S313.6,211.13,323.6,211l.25.23c-.09,10-10.76,20.87-11.62,21.74l-45,45.06,20,20,1.06-1.06.62.62c2.5-2.5,6.19-6.2,6.2-6.19.8-.8.2-2.78.23-3.83l-.16-.16,3.48-3.49,7.72,7.71-3.2,3.2a1.34,1.34,0,0,0-.09.15l-.08,0-.13.12-.1-.1c-1.06,0-2.79-.33-3.59.47L291,303.84c-.33,2.85,4.67,8.18,5.52,9a1.48,1.48,0,0,1,.45,1.31l16.55,16.56,2.46-2.46,6.42,6.44A.36.36,0,0,0,322.28,334.77Z" style="fill:#231f20"/></svg>